<?xml version="1.0" encoding="utf-8"?>
<!-- Generator: Adobe Illustrator 16.0.0, SVG Export Plug-In . SVG Version: 6.00 Build 0)  -->
<!DOCTYPE svg PUBLIC "-//W3C//DTD SVG 1.1//EN" "http://www.w3.org/Graphics/SVG/1.1/DTD/svg11.dtd">
<svg version="1.1" id="Layer_1" xmlns="http://www.w3.org/2000/svg" xmlns:xlink="http://www.w3.org/1999/xlink" x="0px" y="0px"
	 width="107px" height="86px" viewBox="0 0 107 86" enable-background="new 0 0 107 86" xml:space="preserve">
<polygon fill="#FFFFFF" points="8.423,77.054 1.037,62.723 6.845,55.589 17.497,75.628 "/>
<path fill="#FFFFFF" d="M77.348,67.748c1.8-7.523-1.076-22.347-5.329-30.6c-4.255-8.251-11.008-16.221-21.4-22.693L9.266,51.903
	l12.313,23.886l5.234-0.756l6.545,10.443l14.235-3.308l0.257-10.167L77.348,67.748z M43.106,72.756c0,0,0.927,8.673-4.001,9.482
	c-4.93,0.809-7.083-7.687-7.003-7.967L43.106,72.756z"/>
<rect x="92.195" y="14.885" transform="matrix(0.4579 0.889 -0.889 0.4579 74.2586 -71.3273)" fill="#FFFFFF" width="6.841" height="20.683"/>
<rect x="92.197" y="43.16" transform="matrix(-0.0036 1 -1 -0.0036 149.4605 -41.9232)" fill="#FFFFFF" width="6.841" height="20.685"/>
<rect x="67.605" y="1.303" transform="matrix(0.9041 0.4273 -0.4273 0.9041 11.7857 -29.2316)" fill="#FFFFFF" width="6.84" height="20.683"/>
</svg>
