<?xml version="1.0" encoding="utf-8"?>
<!-- Generator: Adobe Illustrator 16.0.0, SVG Export Plug-In . SVG Version: 6.00 Build 0)  -->
<!DOCTYPE svg PUBLIC "-//W3C//DTD SVG 1.1//EN" "http://www.w3.org/Graphics/SVG/1.1/DTD/svg11.dtd">
<svg version="1.1" id="Layer_1" xmlns="http://www.w3.org/2000/svg" xmlns:xlink="http://www.w3.org/1999/xlink" x="0px" y="0px"
	 width="78px" height="78px" viewBox="0 0 78 78" enable-background="new 0 0 78 78" xml:space="preserve">
<path fill="#FFFFFF" d="M75.147,48.158c1.02-3.361,1.576-6.923,1.576-10.613c0-12.322-6.131-23.213-15.526-29.919l0.01-0.014
	l-0.158-0.094c-1.573-1.113-3.231-2.122-4.975-2.986c0,0-14.919,21.935-15.019,21.929L32.307,1.276
	c-0.142,0.026-0.283,0.054-0.423,0.082C14.786,4.762,1.912,19.666,1.912,37.545c0,3.555,0.519,6.985,1.467,10.235
	c-1.269,1.444-2.046,3.331-2.046,5.404c0,4.529,3.668,8.195,8.192,8.195c0.392,0,0.775-0.037,1.153-0.093
	c6.861,8.059,17.142,13.185,28.64,13.185c11.136,0,21.129-4.812,27.982-12.437c0.734,0.217,1.504,0.336,2.307,0.336
	c4.522,0,8.19-3.667,8.19-8.191C77.798,51.793,76.775,49.655,75.147,48.158z M37.483,32.776l1.536,6.186l3.001-5.75
	c1.448,0.904,2.419,2.5,2.419,4.333c0,2.83-2.292,5.12-5.121,5.12c-2.83,0-5.124-2.29-5.124-5.12
	C34.195,35.365,35.563,33.515,37.483,32.776z M32.6,19.917l2.763,7.492c-3.717,1.692-6.306,5.43-6.306,9.782
	c0,5.938,4.812,10.75,10.751,10.75c5.936,0,10.748-4.812,10.748-10.75c0-3.718-1.886-6.993-4.754-8.924l4.885-6.548
	c4.693,3.328,7.762,8.791,7.762,14.983c0,9.125-6.657,16.675-15.373,18.12c-0.835-3.637-4.086-6.352-7.978-6.352
	c-2.473,0-4.685,1.099-6.188,2.833c-4.22-3.228-7.006-8.229-7.22-13.898c3.814-0.7,6.705-4.035,6.705-8.051
	c0-1.944-0.681-3.725-1.81-5.13C28.269,22.413,30.309,20.935,32.6,19.917z M39.319,69.508c-9.522,0-18.083-4.061-24.008-10.521
	c1.488-1.483,2.408-3.536,2.408-5.803c0-4.522-3.668-8.19-8.194-8.19c-0.565,0-1.117,0.056-1.651,0.166
	c-0.604-2.441-0.932-4.989-0.932-7.615c0-13.737,8.786-25.441,21.11-29.958l2.78,7.537c-3.33,1.424-6.253,3.601-8.582,6.306
	c-0.657-0.171-1.34-0.27-2.05-0.27c-4.526,0-8.193,3.668-8.193,8.193c0,3.221,1.862,5.997,4.563,7.336c0,0.005,0,0.008,0,0.013
	c0,8.106,4.108,15.256,10.356,19.475c-0.008,0.162-0.025,0.319-0.025,0.486c0,4.525,3.668,8.192,8.194,8.192
	c3.313,0,6.159-1.972,7.45-4.801c11.8-1.246,20.996-11.224,20.996-23.353c0-7.862-3.874-14.811-9.81-19.072l4.483-6.01
	c8.154,5.802,13.475,15.244,13.475,25.925c0,2.943-0.41,5.79-1.166,8.495c-0.302-0.03-0.608-0.053-0.919-0.053
	c-4.528,0-8.193,3.668-8.193,8.192c0,1.888,0.645,3.623,1.72,5.009C57.218,65.529,48.739,69.508,39.319,69.508z"/>
</svg>
