<?xml version="1.0" encoding="utf-8"?>
<!-- Generator: Adobe Illustrator 16.0.0, SVG Export Plug-In . SVG Version: 6.00 Build 0)  -->
<!DOCTYPE svg PUBLIC "-//W3C//DTD SVG 1.1//EN" "http://www.w3.org/Graphics/SVG/1.1/DTD/svg11.dtd">
<svg version="1.1" id="Layer_1" xmlns="http://www.w3.org/2000/svg" xmlns:xlink="http://www.w3.org/1999/xlink" x="0px" y="0px"
	 width="46px" height="52px" viewBox="0 0 46 52" enable-background="new 0 0 46 52" xml:space="preserve">
<polygon fill="#FFFFFF" points="27,35.932 16.783,35.932 16.783,26.101 10.802,26.101 10.802,35.932 0.586,35.932 0.586,41.687 
	10.802,41.687 10.802,51.517 16.783,51.517 16.783,41.687 27,41.687 "/>
<g>
	<path fill="#FFFFFF" d="M30.986,0.665h-30.4v34.313h5.108V4.781h18.563v15.51h15.699v27.047H17.912v4.198h27.502V14.831
		L30.986,0.665z M28.743,16.941L28.743,16.941V4.781l11.463,12.16H28.743z"/>
	<polygon fill="#FFFFFF" points="5.694,42.64 0.586,42.64 0.586,51.537 9.812,51.537 9.812,47.339 5.694,47.339 	"/>
</g>
</svg>
