<?xml version="1.0" encoding="utf-8"?>
<!-- Generator: Adobe Illustrator 16.0.0, SVG Export Plug-In . SVG Version: 6.00 Build 0)  -->
<!DOCTYPE svg PUBLIC "-//W3C//DTD SVG 1.1//EN" "http://www.w3.org/Graphics/SVG/1.1/DTD/svg11.dtd">
<svg version="1.1" id="Layer_1" xmlns="http://www.w3.org/2000/svg" xmlns:xlink="http://www.w3.org/1999/xlink" x="0px" y="0px"
	 width="47px" height="51px" viewBox="0 0 47 51" enable-background="new 0 0 47 51" xml:space="preserve">
<g id="Layer_2_1_">
	<g>
		<path fill="#FFFFFF" d="M33.899,1H9.022v13.39l4.18,4.041V5.104h14.671v12.8h13.364l0.049,28.375l-28.104-0.031l0.02-13.932
			l-4.18-4.039V50h36.682V13.202L33.899,1z M32.065,15.02v-0.002V4.546l9.379,10.474H32.065z"/>
		<polygon fill="#FFFFFF" points="23.094,30.297 18.917,34.99 25.166,36.504 		"/>
		<polygon fill="#FFFFFF" points="22.7,29.869 7.818,16.492 3.666,21.206 18.476,34.664 		"/>
		<path fill="#FFFFFF" d="M6.071,14.842c-0.724-0.654-1.835-0.591-2.482,0.143l-1.847,2.097c-0.646,0.733-0.583,1.86,0.142,2.515
			c0.725,0.655,0.298,0.271,1.312,1.187l4.188-4.755C6.797,15.497,6.797,15.497,6.071,14.842z"/>
	</g>
</g>
</svg>
