<?xml version="1.0" encoding="utf-8"?>
<!-- Generator: Adobe Illustrator 16.0.0, SVG Export Plug-In . SVG Version: 6.00 Build 0)  -->
<!DOCTYPE svg PUBLIC "-//W3C//DTD SVG 1.1//EN" "http://www.w3.org/Graphics/SVG/1.1/DTD/svg11.dtd">
<svg version="1.1" id="Layer_1" xmlns="http://www.w3.org/2000/svg" xmlns:xlink="http://www.w3.org/1999/xlink" x="0px" y="0px"
	 width="58px" height="58px" viewBox="0 0 58 58" enable-background="new 0 0 58 58" xml:space="preserve">
<g id="Layer_2">
	<path fill="#FFFFFF" d="M29,0.5C13.26,0.5,0.5,13.26,0.5,29c0,15.74,12.76,28.5,28.5,28.5S57.5,44.742,57.5,29
		C57.5,13.259,44.74,0.5,29,0.5z M29,53.666C15.378,53.666,4.334,42.623,4.334,29C4.334,15.377,15.378,4.334,29,4.334
		S53.666,15.377,53.666,29C53.666,42.623,42.622,53.666,29,53.666z"/>
</g>
<path fill="#FFFFFF" d="M42,18.714v-1.75h-6.125v-1.188c0-2.762-2.238-5-5-5h-3.188c-2.762,0-5,2.238-5,5v1.188h-5.75v1.75H15v3.136
	h2.375v21.083c0,1.656,1.343,3,3,3h19.25c1.657,0,3-1.344,3-3V21.85h1.625v-3.136H42z M24.875,16.212
	c0-1.846,1.496-3.342,3.341-3.342h2.132c1.844,0,3.34,1.496,3.34,3.342v0.752h-8.813V16.212z M39.375,40.184c0,1.656-1.343,3-3,3
	H23.292c-1.657,0-3-1.344-3-3V21.85h19.083V40.184z"/>
<rect x="22.875" y="24.964" fill="#FFFFFF" width="3.125" height="14.938"/>
<rect x="28.063" y="24.964" fill="#FFFFFF" width="3.125" height="14.938"/>
<rect x="32.938" y="24.964" fill="#FFFFFF" width="3.125" height="14.938"/>
</svg>
