<?xml version="1.0" encoding="utf-8"?>
<!-- Generator: Adobe Illustrator 16.0.0, SVG Export Plug-In . SVG Version: 6.00 Build 0)  -->
<!DOCTYPE svg PUBLIC "-//W3C//DTD SVG 1.1//EN" "http://www.w3.org/Graphics/SVG/1.1/DTD/svg11.dtd">
<svg version="1.1" id="Layer_1" xmlns="http://www.w3.org/2000/svg" xmlns:xlink="http://www.w3.org/1999/xlink" x="0px" y="0px"
	 width="58px" height="58px" viewBox="0 0 58 58" enable-background="new 0 0 58 58" xml:space="preserve">
<g id="Layer_2">
	<path fill="#FFFFFF" d="M8.847,49.152c11.13,11.131,29.174,11.131,40.305,0c11.13-11.131,11.13-29.174,0-40.304
		c-11.131-11.13-29.175-11.13-40.305,0C-2.283,19.979-2.283,38.021,8.847,49.152z M46.441,11.56c9.632,9.632,9.632,25.249,0,34.882
		c-9.633,9.635-25.251,9.635-34.883,0c-9.632-9.633-9.633-25.249,0-34.882C21.19,1.927,36.809,1.927,46.441,11.56z"/>
</g>
<g>
	<path fill="#FFFFFF" d="M44.859,21.978c1.254-1.255,1.254-3.29,0-4.544l-4.291-4.292c-1.256-1.255-3.291-1.255-4.545,0
		l-1.137,1.136l8.836,8.836L44.859,21.978z"/>
	
		<rect x="30.659" y="19.843" transform="matrix(-0.7071 -0.7071 0.7071 -0.7071 48.0888 62.1049)" fill="#FFFFFF" width="12.496" height="2.499"/>
	
		<rect x="18.289" y="28.426" transform="matrix(0.7071 -0.7071 0.7071 0.7071 -13.0401 28.3166)" fill="#FFFFFF" width="18.745" height="2.947"/>
	<polygon fill="#FFFFFF" points="14.226,43.773 25.672,41.164 38.928,27.91 37.033,26.016 23.779,39.271 16.813,41.188 
		18.288,33.777 31.543,20.524 30.092,19.074 16.836,32.328 	"/>
</g>
</svg>
