<?xml version="1.0" encoding="utf-8"?>
<!-- Generator: Adobe Illustrator 16.0.0, SVG Export Plug-In . SVG Version: 6.00 Build 0)  -->
<!DOCTYPE svg PUBLIC "-//W3C//DTD SVG 1.1//EN" "http://www.w3.org/Graphics/SVG/1.1/DTD/svg11.dtd">
<svg version="1.1" id="Layer_1" xmlns="http://www.w3.org/2000/svg" xmlns:xlink="http://www.w3.org/1999/xlink" x="0px" y="0px"
	 width="49.538px" height="56px" viewBox="0 0 49.538 56" enable-background="new 0 0 49.538 56" xml:space="preserve">
<g>
	<path fill="#FFFFFF" d="M34.563,0.665h-30.4v34.314h5.108V4.781h18.563v15.51h15.699v27.047H21.489v4.197H48.99V14.831
		L34.563,0.665z M32.32,16.94L32.32,16.94V4.781l11.463,12.16H32.32z"/>
</g>
<g>
	<path fill="#FFFFFF" d="M5.51,51.188l0.5-0.529c-2.186-2.179-2.236-5.717-0.093-7.983c0,0-0.052,0.056-0.052,0.056l-0.673-0.636
		c0,0,0.053-0.056,0.052-0.056C2.792,44.636,2.933,48.751,5.51,51.188L5.51,51.188z"/>
	<path fill="#FFFFFF" d="M18.016,50.021l5.818-8.851c-0.02-0.679-0.129-1.333-0.315-1.963l2.927-4.459
		c-0.037-1.319-0.658-2.478-1.692-3.456s-2.303-1.616-3.621-1.58l-4.459,2.969c-0.68-0.183-1.375-0.271-2.078-0.252l-8.657,5.77
		c-0.933,0.458-1.828,1.115-2.584,1.915c-0.861,0.911-1.417,1.873-1.926,3.09l0.917,0.867c0.358-1.147,0.98-2.239,1.851-3.161
		c3.02-3.193,8.068-3.349,11.262-0.329c3.192,3.019,3.34,8.048,0.321,11.24c-3.019,3.193-8.079,3.305-11.272,0.285
		c-0.589-0.557-1.074-1.189-1.479-1.883l-0.746,0.787c0.441,0.657,0.88,1.201,1.426,1.717c3.596,3.4,9.281,3.254,12.681-0.342
		C17.069,51.665,17.619,50.874,18.016,50.021z M21.587,30.627c0.959,0.104,1.953,0.564,2.708,1.279
		c0.756,0.715,1.051,1.458,1.209,2.41l-2.391,3.82c-0.501-1.081-1.248-2.081-2.205-2.985c-0.933-0.883-1.982-1.598-3.096-2.073
		L21.587,30.627z M16.047,39.731c-1.881-1.779-4.331-2.582-6.725-2.43l5.879-3.869c1.667,0.181,3.777,1.356,5.089,2.596
		c1.313,1.241,2.21,2.905,2.484,4.56l-3.941,6.226C18.995,44.249,18.061,41.634,16.047,39.731z"/>
</g>
</svg>
