<?xml version="1.0" encoding="utf-8"?>
<!-- Generator: Adobe Illustrator 16.0.0, SVG Export Plug-In . SVG Version: 6.00 Build 0)  -->
<!DOCTYPE svg PUBLIC "-//W3C//DTD SVG 1.1//EN" "http://www.w3.org/Graphics/SVG/1.1/DTD/svg11.dtd">
<svg version="1.1" id="Layer_1" xmlns="http://www.w3.org/2000/svg" xmlns:xlink="http://www.w3.org/1999/xlink" x="0px" y="0px"
	 width="58px" height="58px" viewBox="0 0 58 58" enable-background="new 0 0 58 58" xml:space="preserve">
<g id="Layer_2">
	<path fill="#FFFFFF" d="M29,0.5C13.26,0.5,0.5,13.26,0.5,29S13.26,57.5,29,57.5S57.5,44.74,57.5,29S44.74,0.5,29,0.5z M29,53.666
		C15.378,53.666,4.334,42.622,4.334,29C4.334,15.377,15.378,4.334,29,4.334S53.666,15.377,53.666,29
		C53.666,42.622,42.622,53.666,29,53.666z"/>
</g>
<polygon fill="#FFFFFF" points="40.583,26.084 31.75,26.084 31.75,17.25 25.916,17.25 25.916,26.084 17.084,26.084 17.084,31.916 
	25.916,31.916 25.916,40.75 31.75,40.75 31.75,31.916 40.583,31.916 "/>
</svg>
