<?xml version="1.0" encoding="utf-8"?>
<!-- Generator: Adobe Illustrator 16.0.0, SVG Export Plug-In . SVG Version: 6.00 Build 0)  -->
<!DOCTYPE svg PUBLIC "-//W3C//DTD SVG 1.1//EN" "http://www.w3.org/Graphics/SVG/1.1/DTD/svg11.dtd">
<svg version="1.1" id="Layer_1" xmlns="http://www.w3.org/2000/svg" xmlns:xlink="http://www.w3.org/1999/xlink" x="0px" y="0px"
	 width="58px" height="58px" viewBox="0 0 58 58" enable-background="new 0 0 58 58" xml:space="preserve">
<g id="Layer_2_2_">
	<path fill="#FFFFFF" d="M8.848,49.152c11.13,11.13,29.173,11.13,40.304,0c11.132-11.131,11.132-29.174,0-40.305
		c-11.131-11.13-29.174-11.13-40.304,0C-2.283,19.979-2.283,38.021,8.848,49.152z M46.441,11.559c9.633,9.633,9.633,25.25,0,34.882
		c-9.633,9.635-25.251,9.635-34.883,0c-9.632-9.633-9.633-25.25,0-34.882C21.19,1.927,36.809,1.927,46.441,11.559z"/>
</g>
<polygon fill="#FFFFFF" points="36.988,25.076 28.801,32.742 33.531,32.742 33.531,42.305 40.447,42.305 40.447,32.742 
	45.178,32.742 "/>
<path fill="#FFFFFF" d="M38.76,19.267c-2.337-2.337-5.306-3.656-8.357-3.962l-0.287-0.072l0.042,0.054
	c-3.892-0.319-7.893,1.002-10.87,3.979c-5.378,5.378-5.378,14.095,0,19.474c3.435,3.436,8.231,4.669,12.65,3.715v-0.488v-0.459
	v-5.326l0.011-2.324l-3.998-0.051l-0.054-1.377c0,0,1.781-1.938,3.469-3.595c-0.766,0.312-5.317-1.594-5.993-2.172
	c-1.39-1.19-0.627-1.856-0.627-1.856l2.678-1.006l-1.607-2.631h-1.989l-1.148,3.25l-1.071-2.166l-1.148-0.388l-0.918,2.012
	l-0.077,0.929l-1.009-0.078l-0.596-2.702c0.519-0.828,1.134-1.613,1.854-2.333c2.99-2.99,7.059-4.229,10.953-3.741l1.281,1.668
	l-1.833,1.5l2.667,3h4.208l-0.285-3.794c0.566,0.41,1.118,0.855,1.63,1.367c2.293,2.294,3.562,5.225,3.808,8.223h0.605
	C42.498,24.764,41.172,21.679,38.76,19.267z M20.842,32.932l-2.807,3.328c-1.377-2.08-2.098-4.465-2.168-6.865l1.914,0.055
	L20.842,32.932z"/>
</svg>
