<?xml version="1.0" encoding="utf-8"?>
<!-- Generator: Adobe Illustrator 16.0.0, SVG Export Plug-In . SVG Version: 6.00 Build 0)  -->
<!DOCTYPE svg PUBLIC "-//W3C//DTD SVG 1.1//EN" "http://www.w3.org/Graphics/SVG/1.1/DTD/svg11.dtd">
<svg version="1.1" id="Layer_1" xmlns="http://www.w3.org/2000/svg" xmlns:xlink="http://www.w3.org/1999/xlink" x="0px" y="0px"
	 width="58px" height="58px" viewBox="0 0 58 58" enable-background="new 0 0 58 58" xml:space="preserve">
<path fill="#FFFFFF" d="M42.774,25.312l-0.169-10.858l-8.586,6.649l2.498,1.201c-0.918,1.455-2.458,3.734-4.316,5.827
	c-1.703,1.921-3.284,3.246-4.342,4.036c-1.295-1.531-3.234-2.502-5.402-2.502c-3.901,0-7.062,3.145-7.062,7.023
	s3.161,7.022,7.062,7.022c3.899,0,7.061-3.145,7.061-7.022c0-0.106-0.003-0.214-0.008-0.32c1.048-0.773,3.776-2.873,5.962-5.337
	c2.198-2.477,4.203-5.656,4.935-6.856L42.774,25.312z M22.456,39.671c-1.648,0-2.983-1.336-2.983-2.983s1.335-2.983,2.983-2.983
	s2.984,1.336,2.984,2.983S24.104,39.671,22.456,39.671z"/>
<polygon fill="#FFFFFF" points="27.99,17.928 25.394,15.333 22.306,18.42 19.219,15.333 16.623,17.928 19.71,21.015 16.623,24.104 
	19.219,26.7 22.306,23.61 25.394,26.7 27.99,24.104 24.902,21.015 "/>
<path fill="#FFFFFF" d="M56.572,37.876c1.878-3.996,0.161-8.759-3.83-10.639c-3.997-1.88-8.762-0.167-10.642,3.831
	c-1.589,3.373-0.604,7.291,2.148,9.561l-4.77,10.133l3.582,1.687l4.77-10.133C51.335,42.988,54.984,41.252,56.572,37.876z
	 M46.54,40.418c-3.284-1.549-4.691-5.462-3.147-8.741c1.544-3.283,5.457-4.693,8.739-3.149c3.283,1.546,4.69,5.457,3.146,8.739
	C53.737,40.548,49.824,41.96,46.54,40.418z"/>
<path fill="#FFFFFF" d="M38.488,51.647c-8.871,3.696-19.477,1.941-26.693-5.278c-9.549-9.549-9.549-25.026,0-34.573
	c9.546-9.548,25.029-9.548,34.577,0c4.112,4.109,6.44,9.317,7.012,14.678h3.83c-0.586-6.336-3.301-12.513-8.154-17.366
	c-11.033-11.033-28.919-11.033-39.951,0c-11.034,11.033-11.034,28.917,0,39.951c7.945,7.946,19.445,10.17,29.38,6.667V51.647
	L38.488,51.647L38.488,51.647z"/>
</svg>
