<?xml version="1.0" encoding="utf-8"?>
<!-- Generator: Adobe Illustrator 16.0.0, SVG Export Plug-In . SVG Version: 6.00 Build 0)  -->
<!DOCTYPE svg PUBLIC "-//W3C//DTD SVG 1.1//EN" "http://www.w3.org/Graphics/SVG/1.1/DTD/svg11.dtd">
<svg version="1.1" id="Layer_1" xmlns="http://www.w3.org/2000/svg" xmlns:xlink="http://www.w3.org/1999/xlink" x="0px" y="0px"
	 width="75px" height="75px" viewBox="0 0 75 75" enable-background="new 0 0 75 75" xml:space="preserve">
<path fill="#FFFFFF" d="M51.311,33.697l-0.17-10.955l-8.662,6.708l2.519,1.212c-0.925,1.468-2.479,3.767-4.353,5.879
	c-1.719,1.938-3.313,3.273-4.381,4.072c-1.307-1.544-3.263-2.526-5.45-2.526c-3.935,0-7.124,3.173-7.124,7.086
	s3.189,7.086,7.124,7.086c3.934,0,7.123-3.173,7.123-7.086c0-0.107-0.003-0.215-0.008-0.321c1.059-0.781,3.811-2.901,6.014-5.386
	c2.218-2.499,4.242-5.706,4.979-6.917L51.311,33.697z M30.813,48.183c-1.662,0-3.01-1.348-3.01-3.01s1.348-3.01,3.01-3.01
	s3.01,1.348,3.01,3.01S32.476,48.183,30.813,48.183z"/>
<polygon fill="#FFFFFF" points="36.396,26.247 33.777,23.629 30.662,26.743 27.548,23.629 24.929,26.247 28.044,29.362 
	24.929,32.477 27.548,35.096 30.662,31.98 33.777,35.096 36.396,32.477 33.281,29.362 "/>
<path fill="#FFFFFF" d="M65.23,46.373c1.897-4.032,0.165-8.838-3.863-10.735c-4.031-1.897-8.838-0.168-10.735,3.864
	c-1.603,3.405-0.607,7.358,2.168,9.648l-4.812,10.223l3.616,1.701l4.81-10.221C59.949,51.531,63.629,49.778,65.23,46.373z
	 M55.111,48.935c-3.312-1.56-4.733-5.508-3.175-8.819s5.505-4.733,8.816-3.174c3.312,1.559,4.733,5.505,3.175,8.816
	C62.37,49.068,58.423,50.491,55.111,48.935z"/>
<path fill="#FFFFFF" d="M46.988,60.265c-8.951,3.728-19.649,1.96-26.93-5.323c-9.633-9.633-9.633-25.249,0-34.882
	c9.632-9.632,25.25-9.632,34.883,0c4.146,4.146,6.496,9.4,7.073,14.809h3.862c-0.589-6.393-3.329-12.625-8.225-17.52
	c-11.131-11.13-29.175-11.13-40.305,0c-11.131,11.13-11.131,29.173,0,40.304c8.016,8.017,19.617,10.258,29.641,6.728V60.265z"/>
</svg>
