<?xml version="1.0" encoding="utf-8"?>
<!-- Generator: Adobe Illustrator 16.0.0, SVG Export Plug-In . SVG Version: 6.00 Build 0)  -->
<!DOCTYPE svg PUBLIC "-//W3C//DTD SVG 1.1//EN" "http://www.w3.org/Graphics/SVG/1.1/DTD/svg11.dtd">
<svg version="1.1" id="Layer_1" xmlns="http://www.w3.org/2000/svg" xmlns:xlink="http://www.w3.org/1999/xlink" x="0px" y="0px"
	 width="75px" height="72.298px" viewBox="0 0 75 72.298" enable-background="new 0 0 75 72.298" xml:space="preserve">
<path fill="#FFFFFF" d="M53.693,31.341l-0.215-13.903l-10.992,8.513l3.197,1.539c-1.175,1.863-3.146,4.78-5.524,7.461
	c-2.182,2.459-4.204,4.153-5.56,5.167c-1.658-1.959-4.142-3.205-6.917-3.205c-4.993,0-9.041,4.025-9.041,8.993
	c0,4.964,4.047,8.992,9.041,8.992s9.04-4.028,9.04-8.992c0-0.137-0.004-0.273-0.01-0.408c1.344-0.991,4.836-3.682,7.632-6.835
	c2.813-3.172,5.383-7.242,6.317-8.778L53.693,31.341z M27.683,49.723c-2.108,0-3.819-1.711-3.819-3.82s1.711-3.819,3.819-3.819
	c2.109,0,3.821,1.71,3.821,3.819S29.792,49.723,27.683,49.723z"/>
<polygon fill="#FFFFFF" points="34.767,21.887 31.444,18.563 27.491,22.516 23.539,18.563 20.215,21.887 24.167,25.839 
	20.215,29.792 23.539,33.115 27.491,29.162 31.444,33.115 34.767,29.792 30.814,25.839 "/>
<path fill="#FFFFFF" d="M60.244,48.648c-8.146,0-14.752,6.249-14.752,6.249s6.605,6.248,14.752,6.248
	c8.147,0,14.753-6.248,14.753-6.248S68.392,48.648,60.244,48.648z M60.244,59.385c-2.479,0-4.485-2.009-4.485-4.487
	s2.007-4.488,4.485-4.488c2.479,0,4.489,2.01,4.489,4.488S62.724,59.385,60.244,59.385z"/>
<path fill="#FFFFFF" d="M53.221,62.413c-12.134,7.902-28.54,6.536-39.187-4.113c-12.224-12.224-12.224-32.042,0-44.266
	c12.224-12.224,32.043-12.224,44.268,0c8.897,8.896,11.287,21.807,7.232,32.893c1.648,0.375,3.215,0.886,4.669,1.485
	c4.583-12.766,1.768-27.591-8.461-37.818c-14.125-14.125-37.024-14.125-51.148,0c-14.125,14.124-14.125,37.021,0,51.146
	c13.514,13.516,35.058,14.09,49.266,1.74C57.528,63.438,55.297,63.03,53.221,62.413z"/>
</svg>
