<?xml version="1.0" encoding="utf-8"?>
<!-- Generator: Adobe Illustrator 16.0.0, SVG Export Plug-In . SVG Version: 6.00 Build 0)  -->
<!DOCTYPE svg PUBLIC "-//W3C//DTD SVG 1.1//EN" "http://www.w3.org/Graphics/SVG/1.1/DTD/svg11.dtd">
<svg version="1.1" xmlns="http://www.w3.org/2000/svg" xmlns:xlink="http://www.w3.org/1999/xlink" x="0px" y="0px" width="58px"
	 height="58px" viewBox="0 0 58 58" enable-background="new 0 0 58 58" xml:space="preserve">
<g id="Layer_2_1_">
	<path fill="#FFFFFF" d="M41.955,32.951c-4.325,0-7.831,3.036-7.831,3.036s3.506,3.036,7.831,3.036c4.326,0,7.832-3.036,7.832-3.036
		S46.281,32.951,41.955,32.951z M41.955,37.571c-0.876,0-1.584-0.708-1.584-1.584s0.708-1.584,1.584-1.584s1.584,0.708,1.584,1.584
		S42.831,37.571,41.955,37.571z"/>
	<path fill="#FFFFFF" d="M41.955,39.91c-0.437,0-0.863-0.031-1.285-0.076v2.419H18.974V15.304h11.754v9.821h9.941v7.015
		c0.422-0.044,0.849-0.076,1.285-0.076c0.747,0,1.472,0.074,2.171,0.195V21.668l-9.136-8.971H15.739v32.215h28.387v-5.197
		C43.427,39.836,42.702,39.91,41.955,39.91z M33.569,15.304l7.26,7.7h-7.26V15.304z"/>
</g>
<g id="Layer_1">
	<g id="Layer_2">
		<path fill="#FFFFFF" d="M29,0.5C13.26,0.5,0.5,13.26,0.5,29S13.26,57.5,29,57.5S57.5,44.74,57.5,29S44.74,0.5,29,0.5z M29,53.666
			C15.378,53.666,4.334,42.622,4.334,29C4.334,15.377,15.378,4.334,29,4.334S53.666,15.377,53.666,29
			C53.666,42.622,42.622,53.666,29,53.666z"/>
	</g>
</g>
</svg>
