<?xml version="1.0" encoding="utf-8"?>
<!-- Generator: Adobe Illustrator 16.0.0, SVG Export Plug-In . SVG Version: 6.00 Build 0)  -->
<!DOCTYPE svg PUBLIC "-//W3C//DTD SVG 1.1//EN" "http://www.w3.org/Graphics/SVG/1.1/DTD/svg11.dtd">
<svg version="1.1" id="Layer_1" xmlns="http://www.w3.org/2000/svg" xmlns:xlink="http://www.w3.org/1999/xlink" x="0px" y="0px"
	 width="979.768px" height="381.301px" viewBox="0 0 979.768 381.301" enable-background="new 0 0 979.768 381.301"
	 xml:space="preserve">
<g id="Layer_1_1_">
	<g>
		
			<image overflow="visible" opacity="0.3" enable-background="new    " width="1718" height="1526" xlink:href="DD7B0CB0.png"  transform="matrix(0.2389 0 0 0.2387 5.0654 -2.001)">
		</image>
		<g>
			<g>
				
					<linearGradient id="SVGID_1_" gradientUnits="userSpaceOnUse" x1="372.0142" y1="-89.7681" x2="611.9466" y2="97.9985" gradientTransform="matrix(1 0 0 -1 -152.5 125.8008)">
					<stop  offset="0.0128" style="stop-color:#F26A2C"/>
					<stop  offset="1" style="stop-color:#E25425"/>
				</linearGradient>
				<path fill="url(#SVGID_1_)" d="M351.955,86.2c-0.035,0.672,0.332,0.461,0.271,0c2.723-6.941,4.749-14.162,8.961-20.64
					c1.188-1.827,2.954-4.872,4.889-4.888c1.785-0.016,4.479,3.357,6.246,5.16c5.563,5.678,10.602,12.978,14.121,20.097
					c4.894,9.896,9.336,23.272,8.419,36.935c-0.727,10.815-7.317,17.936-8.146,27.699c1.021,0.701,2.256-0.83,3.26-1.357
					c3.416-1.795,8.095-3.59,11.405-5.703c4.275,10.695,5.927,26.316,0.813,36.662c-4.478,9.06-9.865,15.716-14.938,23.354
					c-39.521,59.537-88.834,83.354-150.449,97.224c-5.382,9.977-13.162,18.74-22.813,25.256
					c-11.527,7.785-26.058,13.305-45.623,12.223c-20.774-1.149-35.912-11.155-47.254-23.629c-5.5-6.049-9.976-13.483-13.578-21.725
					c-3.715-8.5-6.08-18.123-6.626-27.974c-0.594-10.729-0.011-20.022,2.281-29.604c2.708-0.008,5.541,0.109,7.875-0.271
					c-1.064-0.533-2.351-1.479-3.258-2.442c-2.611-2.063-2.384-3.769-2.445-5.978c0.844-3.184,2.172-6.396,3.531-9.231
					c1.328-2.771,2.501-5.854,5.703-6.789c2.323,1.521,2.897,4.239,4.074,6.521c1.084,2.1,2.286,4.52,3.802,6.52
					c2.588,3.408,7.409,7.822,12.764,7.875c3.406,0.033,6.495-2.176,9.233-3.531c2.654-1.313,5.481-3.012,8.69-4.072
					c8.38-2.772,20.54-0.992,26.341-5.432c4.31-3.297,8.054-11.795,10.863-17.109c1.427-2.697,3.225-5.76,5.16-8.963
					c1.694-2.805,4-7.159,6.246-7.603c2.268-0.449,5.073,1.004,7.061,2.443c1.2,0.87,4.286,3.146,4.616,4.617
					c0.363,1.607-0.55,3.611-0.813,5.16c-0.322,1.889-0.495,3.551-0.815,5.158c1.916-0.711,4.361-3.24,6.519-4.615
					c3.18,2.25,4.734,6.127,7.332,8.961c-1.563,1.697-3.737,2.781-5.432,4.346c2.563,0.105,4.775-1.896,6.789-1.354
					c2.029,0.541,2.245,3.461,3.53,5.158c30.9-19.041,54.905-44.585,71.151-79.025c8.142-17.26,13.936-36.438,16.022-58.932
					c1.983-21.402,0.588-41.527-3.53-60.018c-0.479-2.154-1.889-6.279-1.629-7.604c0.239-1.229,2.415-2.783,4.072-2.987
					c3.52-0.437,7.702,2.053,11.135,3.802c9.914,5.053,17.026,12.523,21.454,23.083c6.586,15.706,6.346,36.737,2.717,52.957
					C351.955,86.02,351.955,86.11,351.955,86.2z M190.625,287.984c50.514-0.321,21.493-110.729-32.732-42.76
					c-13.33,16.707-51.75-9.377-47.713,28.25c4.886,45.554,62.215,38.597,50.366-4.658
					C166.754,281.012,176.779,287.4,190.625,287.984 M166.74,304.379c1.207,2.215,3.462,6.498,4.889,6.789
					c1.751,0.359,4.426-1.77,5.976-2.715c4.204-2.57,7.136-4.881,9.505-8.42c1.156-1.727,2.37-3.811,2.716-6.244
					c-2.01-0.783-4.337-0.236-6.518-0.545c-6.699-0.945-12.462-3.51-16.566-6.518C162.046,291.098,163.924,299.209,166.74,304.379z"
					/>
				<path fill="#E25425" d="M13.033,192.383c21.669,19.068,46.874,34.6,79.57,42.639c-2.209,24.463,2.728,45.547,12.492,59.746
					c-21.757-5.942-41.071-16.686-60.289-26.072c2.489-0.948,5.953-0.926,8.962-1.356c-1.359-1.969-4.079-2.688-6.79-3.526
					c-2.764-0.859-6.18-1.16-8.419-2.174c-4.52-2.046-7.125-8.589-9.233-13.035c-2.458-5.188-4.681-10.484-5.975-16.021
					c5.582,1.479,11.099,3.021,16.838,4.346c-0.909-4.25-4.37-5.121-7.604-6.246c-1.675-0.582-3.503-1.225-5.432-1.631
					c-1.881-0.395-4.245-0.373-5.703-1.086c-3.89-1.896-5.429-10.619-6.247-15.479c-1.106-6.576-1.779-12.713-2.172-19.281
					C13.033,192.926,13.033,192.654,13.033,192.383z"/>
				<path fill="#F26A2C" d="M185.426,234.915c9.183-0.937,15.999,6.258,19.032,11.235c9.179,15.06-1.594,33.603-17.196,34.105
					c-12.954,0.418-22.861-10.945-21.783-24.076c0.43-5.229,2.632-9.262,4.013-11.178C172.7,240.542,178.003,235.67,185.426,234.915
					z"/>
				<path fill="#F26A2C" d="M135.483,256.514c11.495,0.965,21.347,8.766,22.495,19.947c1.32,12.857-8.904,27.686-24.679,21.668
					c-6.833-2.604-14.033-7.273-16.342-18.92C114.62,267.42,123.233,255.486,135.483,256.514z"/>
				<path fill="#E25425" d="M257.447,306.443c5.705,0.954,9.286,10.478,9.777,16.839c0.953,12.397-4.562,22.235-12.766,26.612
					c-2.139,1.144-5.293,2.341-7.332,1.898c-1.438-0.309-3.499-3.168-4.888-4.889c-3.146-3.896-5.362-7.287-8.419-11.136
					c-1.541-1.938-3.413-3.602-4.074-5.432c-0.623-1.727-0.89-5.646,0.271-7.332c1.047-1.518,4.852-1.938,7.604-2.986
					C245.538,317.014,252.723,312.038,257.447,306.443z"/>
			</g>
		</g>
	</g>
</g>
<g id="Layer_2">
	<g>
		<rect x="411.368" y="161.022" fill="none" width="528" height="145.72"/>
		<g enable-background="new    ">
			<path fill="#F7F2F2" d="M414.251,263.262v-12.656l52.805-66.023c3.75-4.687,7.313-8.765,10.688-12.234h-57.517v-12.164h73.828
				v12.164l-57.866,71.507l-6.259,7.242h65.813v12.164H414.251z"/>
			<path fill="#F7F2F2" d="M507.02,174.738v-14.555h12.656v14.555H507.02z M507.02,263.262V188.59h12.656v74.672H507.02z"/>
			<path fill="#F7F2F2" d="M537.14,263.262V160.184h12.656v58.782l29.953-30.375h16.383l-28.547,27.704l31.43,46.969h-15.608
				l-24.681-38.18l-8.93,8.578v29.602H537.14V263.262z"/>
			<path fill="#F7F2F2" d="M602.135,240.973l12.517-1.969c0.702,5.016,2.658,8.859,5.87,11.531
				c3.211,2.672,7.699,4.008,13.466,4.008c5.812,0,10.125-1.184,12.938-3.551c2.813-2.367,4.219-5.145,4.219-8.332
				c0-2.859-1.242-5.109-3.727-6.75c-1.735-1.125-6.047-2.555-12.938-4.289c-9.28-2.344-15.715-4.371-19.301-6.082
				s-6.306-4.078-8.156-7.102c-1.853-3.023-2.776-6.363-2.776-10.021c0-3.328,0.761-6.41,2.285-9.246
				c1.521-2.836,3.597-5.19,6.223-7.065c1.969-1.454,4.651-2.684,8.051-3.692c3.397-1.008,7.042-1.512,10.935-1.512
				c5.857,0,11.004,0.844,15.434,2.531s7.699,3.973,9.81,6.856c2.109,2.883,3.562,6.737,4.358,11.565l-12.375,1.688
				c-0.563-3.844-2.191-6.844-4.887-9c-2.696-2.155-6.504-3.233-11.426-3.233c-5.813,0-9.962,0.961-12.445,2.883
				c-2.485,1.922-3.727,4.172-3.727,6.75c0,1.641,0.515,3.117,1.547,4.43c1.029,1.359,2.646,2.484,4.852,3.375
				c1.266,0.469,4.992,1.547,11.18,3.234c8.952,2.391,15.198,4.348,18.738,5.871c3.538,1.522,6.315,3.737,8.332,6.645
				c2.015,2.906,3.023,6.516,3.023,10.828c0,4.219-1.23,8.191-3.691,11.918s-6.012,6.609-10.652,8.648
				c-4.64,2.039-9.892,3.059-15.75,3.059c-9.702,0-17.099-2.016-22.184-6.047C606.786,254.872,603.541,248.895,602.135,240.973z"/>
			<path fill="#F7F2F2" d="M726.052,254.051c-4.688,3.984-9.198,6.797-13.535,8.438c-4.336,1.642-8.987,2.462-13.956,2.462
				c-8.203,0-14.509-2.005-18.914-6.013c-4.406-4.008-6.609-9.129-6.609-15.362c0-3.656,0.832-6.996,2.496-10.021
				c1.664-3.023,3.844-5.449,6.539-7.277c2.694-1.827,5.729-3.211,9.104-4.147c2.484-0.655,6.234-1.289,11.25-1.897
				c10.22-1.219,17.742-2.672,22.57-4.359c0.047-1.734,0.07-2.836,0.07-3.305c0-5.156-1.195-8.789-3.586-10.898
				c-3.234-2.859-8.039-4.289-14.414-4.289c-5.953,0-10.349,1.043-13.185,3.129s-4.934,5.777-6.293,11.074l-12.375-1.688
				c1.125-5.297,2.978-9.574,5.555-12.832c2.578-3.258,6.306-5.767,11.181-7.524s10.522-2.637,16.944-2.637
				c6.375,0,11.556,0.75,15.539,2.25c3.984,1.501,6.914,3.387,8.789,5.662c1.875,2.273,3.188,5.145,3.938,8.613
				c0.422,2.155,0.633,6.047,0.633,11.672v16.875c0,11.766,0.271,19.207,0.809,22.323c0.539,3.117,1.605,6.104,3.199,8.966h-13.219
				C727.271,260.637,726.427,257.566,726.052,254.051z M724.997,225.786c-4.594,1.875-11.484,3.469-20.672,4.78
				c-5.203,0.75-8.883,1.595-11.039,2.531c-2.156,0.938-3.82,2.31-4.992,4.113c-1.172,1.805-1.758,3.809-1.758,6.012
				c0,3.375,1.276,6.188,3.832,8.438c2.555,2.25,6.293,3.375,11.215,3.375c4.875,0,9.211-1.065,13.008-3.199
				c3.797-2.133,6.586-5.051,8.367-8.754c1.359-2.858,2.039-7.078,2.039-12.656V225.786z"/>
			<path fill="#F7F2F2" d="M755.54,263.262V188.59h11.391v10.618c5.484-8.203,13.404-12.305,23.767-12.305
				c4.5,0,8.636,0.809,12.41,2.426c3.771,1.617,6.597,3.739,8.473,6.364c1.873,2.625,3.188,5.742,3.938,9.352
				c0.468,2.344,0.703,6.445,0.703,12.305v45.914h-12.656V217.84c0-5.156-0.491-9.012-1.477-11.566
				c-0.985-2.553-2.732-4.594-5.238-6.116c-2.509-1.523-5.448-2.285-8.823-2.285c-5.393,0-10.045,1.711-13.957,5.133
				c-3.915,3.422-5.871,9.914-5.871,19.478v40.781H755.54V263.262z"/>
			<path fill="#F7F2F2" d="M882.479,254.051c-4.688,3.984-9.199,6.797-13.534,8.438c-4.336,1.642-8.989,2.462-13.957,2.462
				c-8.203,0-14.509-2.005-18.914-6.013c-4.406-4.008-6.609-9.129-6.609-15.362c0-3.656,0.832-6.996,2.496-10.021
				c1.663-3.022,3.843-5.449,6.539-7.277c2.695-1.827,5.729-3.211,9.104-4.147c2.484-0.655,6.233-1.289,11.25-1.897
				c10.22-1.219,17.742-2.672,22.57-4.359c0.046-1.734,0.07-2.836,0.07-3.305c0-5.156-1.195-8.789-3.586-10.898
				c-3.234-2.859-8.04-4.289-14.414-4.289c-5.953,0-10.348,1.043-13.185,3.129s-4.934,5.777-6.293,11.074l-12.375-1.688
				c1.125-5.297,2.978-9.574,5.556-12.832c2.577-3.258,6.304-5.767,11.18-7.524c4.875-1.758,10.521-2.637,16.945-2.637
				c6.374,0,11.555,0.75,15.539,2.25c3.982,1.501,6.914,3.387,8.789,5.662c1.874,2.272,3.188,5.145,3.938,8.613
				c0.422,2.155,0.633,6.047,0.633,11.672v16.875c0,11.766,0.271,19.207,0.81,22.323c0.538,3.117,1.604,6.104,3.198,8.966H885.01
				C883.698,260.637,882.854,257.566,882.479,254.051z M881.425,225.786c-4.595,1.875-11.484,3.469-20.672,4.78
				c-5.203,0.75-8.884,1.595-11.039,2.531c-2.156,0.938-3.821,2.31-4.992,4.113c-1.172,1.805-1.758,3.809-1.758,6.012
				c0,3.375,1.276,6.188,3.832,8.438c2.555,2.25,6.293,3.375,11.215,3.375c4.875,0,9.211-1.065,13.008-3.199
				c3.798-2.133,6.585-5.051,8.367-8.754c1.359-2.858,2.039-7.078,2.039-12.656V225.786z"/>
		</g>
	</g>
</g>
<g id="Layer_3">
	<g enable-background="new    ">
		<path fill="#F7F2F2" d="M410.421,359.79v-49.391h6.536v43.563h24.325v5.828H410.421z"/>
		<path fill="#F7F2F2" d="M472.784,348.268l6.267,0.773c-0.989,3.662-2.818,6.504-5.492,8.525c-2.673,2.021-6.087,3.03-10.241,3.03
			c-5.234,0-9.384-1.61-12.449-4.834c-3.066-3.223-4.6-7.744-4.6-13.561c0-6.021,1.551-10.691,4.649-14.017
			c3.099-3.324,7.12-4.985,12.063-4.985c4.783,0,8.691,1.629,11.725,4.885c3.032,3.258,4.548,7.84,4.548,13.746
			c0,0.359-0.012,0.898-0.034,1.617h-26.684c0.224,3.932,1.336,6.938,3.335,9.028c1.999,2.089,4.492,3.134,7.479,3.134
			c2.225,0,4.122-0.584,5.694-1.752C470.616,352.692,471.862,350.829,472.784,348.268z M452.872,338.463h19.979
			c-0.27-3.01-1.032-5.268-2.291-6.771c-1.932-2.336-4.436-3.504-7.513-3.504c-2.785,0-5.127,0.932-7.024,2.795
			C454.124,332.848,453.074,335.342,452.872,338.463z"/>
		<path fill="#F7F2F2" d="M510.013,355.375c-2.246,1.91-4.407,3.258-6.484,4.043c-2.078,0.787-4.309,1.18-6.688,1.18
			c-3.93,0-6.952-0.959-9.063-2.881c-2.111-1.92-3.167-4.373-3.167-7.36c0-1.753,0.397-3.353,1.195-4.802
			c0.798-1.448,1.842-2.61,3.134-3.485c1.292-0.877,2.746-1.539,4.362-1.988c1.19-0.314,2.986-0.617,5.392-0.91
			c4.896-0.584,8.502-1.279,10.813-2.088c0.022-0.832,0.034-1.359,0.034-1.584c0-2.471-0.573-4.211-1.718-5.223
			c-1.551-1.369-3.854-2.056-6.907-2.056c-2.853,0-4.958,0.5-6.317,1.5c-1.358,0.998-2.362,2.769-3.016,5.306l-5.929-0.81
			c0.539-2.537,1.426-4.586,2.662-6.147c1.234-1.562,3.021-2.763,5.356-3.604c2.336-0.844,5.041-1.264,8.119-1.264
			c3.055,0,5.537,0.358,7.445,1.078c1.909,0.719,3.313,1.623,4.212,2.711c0.896,1.09,1.526,2.467,1.887,4.127
			c0.202,1.035,0.304,2.897,0.304,5.594v8.086c0,5.639,0.13,9.203,0.388,10.697s0.77,2.926,1.533,4.295h-6.334
			C510.597,358.532,510.192,357.061,510.013,355.375z M509.507,341.833c-2.201,0.898-5.503,1.662-9.904,2.291
			c-2.493,0.359-4.258,0.764-5.29,1.213s-1.83,1.107-2.392,1.971c-0.563,0.865-0.843,1.826-0.843,2.882
			c0,1.616,0.612,2.965,1.836,4.043c1.224,1.077,3.016,1.616,5.374,1.616c2.336,0,4.414-0.51,6.231-1.532
			c1.82-1.021,3.156-2.42,4.011-4.195c0.65-1.369,0.977-3.391,0.977-6.064V341.833z"/>
		<path fill="#F7F2F2" d="M524.972,359.79v-35.78h5.458v5.424c1.394-2.536,2.68-4.211,3.858-5.02
			c1.178-0.809,2.476-1.213,3.891-1.213c2.043,0,4.121,0.649,6.232,1.953l-2.088,5.627c-1.482-0.877-2.966-1.314-4.447-1.314
			c-1.326,0-2.516,0.4-3.572,1.197c-1.056,0.797-1.808,1.902-2.257,3.318c-0.674,2.155-1.011,4.514-1.011,7.073v18.732h-6.064
			V359.79z"/>
		<path fill="#F7F2F2" d="M548.017,359.79v-35.78h5.458v5.086c2.629-3.93,6.424-5.895,11.389-5.895c2.156,0,4.139,0.387,5.947,1.162
			c1.807,0.774,3.159,1.791,4.059,3.049s1.527,2.752,1.887,4.479c0.226,1.123,0.338,3.091,0.338,5.896v22h-6.063v-21.764
			c0-2.472-0.236-4.318-0.708-5.543c-0.473-1.226-1.31-2.201-2.511-2.933c-1.201-0.729-2.61-1.094-4.229-1.094
			c-2.583,0-4.813,0.82-6.688,2.459c-1.875,1.641-2.813,4.75-2.813,9.332v19.541h-6.065V359.79z"/>
		<path fill="#F7F2F2" d="M586.425,317.372v-6.973h6.064v6.973H586.425z M586.425,359.79v-35.78h6.064v35.779L586.425,359.79
			L586.425,359.79z"/>
		<path fill="#F7F2F2" d="M601.721,359.79v-35.78h5.458v5.086c2.628-3.93,6.425-5.895,11.389-5.895c2.155,0,4.138,0.387,5.945,1.162
			c1.809,0.774,3.162,1.791,4.062,3.049c0.896,1.258,1.526,2.752,1.887,4.479c0.224,1.123,0.336,3.091,0.336,5.896v22h-6.063
			v-21.764c0-2.472-0.235-4.318-0.707-5.543c-0.473-1.226-1.31-2.201-2.511-2.933c-1.201-0.729-2.61-1.094-4.229-1.094
			c-2.583,0-4.813,0.82-6.688,2.459c-1.876,1.641-2.813,4.75-2.813,9.332v19.541h-6.065V359.79z"/>
		<path fill="#F7F2F2" d="M638.983,362.754l5.896,0.877c0.246,1.818,0.932,3.146,2.055,3.976c1.504,1.122,3.561,1.686,6.166,1.686
			c2.808,0,4.976-0.563,6.502-1.686c1.527-1.123,2.562-2.695,3.101-4.718c0.313-1.233,0.46-3.828,0.438-7.782
			c-2.649,3.122-5.95,4.684-9.903,4.684c-4.92,0-8.728-1.773-11.422-5.322c-2.695-3.549-4.044-7.805-4.044-12.77
			c0-3.414,0.617-6.564,1.854-9.451c1.234-2.885,3.025-5.115,5.373-6.688c2.348-1.572,5.104-2.356,8.271-2.356
			c4.224,0,7.703,1.707,10.444,5.121v-4.313h5.593v30.929c0,5.569-0.566,9.518-1.701,11.844c-1.135,2.324-2.932,4.16-5.391,5.508
			c-2.46,1.348-5.486,2.021-9.08,2.021c-4.268,0-7.715-0.962-10.344-2.882C640.163,369.51,638.894,366.618,638.983,362.754z
			 M644.003,341.26c0,4.693,0.932,8.119,2.797,10.275c1.864,2.156,4.199,3.233,7.008,3.233c2.785,0,5.121-1.071,7.009-3.217
			c1.887-2.145,2.83-5.51,2.83-10.092c0-4.379-0.973-7.682-2.914-9.904c-1.943-2.225-4.285-3.336-7.025-3.336
			c-2.695,0-4.986,1.097-6.873,3.285C644.947,333.694,644.003,336.948,644.003,341.26z"/>
		<path fill="#F7F2F2" d="M698.348,359.79v-49.391h6.704l25.943,38.776v-38.776h6.266v49.391h-6.704l-25.941-38.813v38.813H698.348z
			"/>
		<path fill="#F7F2F2" d="M770.817,355.375c-2.246,1.91-4.408,3.258-6.484,4.043c-2.078,0.787-4.309,1.18-6.688,1.18
			c-3.931,0-6.951-0.959-9.063-2.881c-2.111-1.92-3.166-4.373-3.166-7.36c0-1.753,0.398-3.353,1.195-4.802
			c0.797-1.448,1.842-2.61,3.133-3.485c1.292-0.877,2.746-1.539,4.363-1.988c1.19-0.314,2.986-0.617,5.391-0.91
			c4.896-0.584,8.502-1.279,10.814-2.088c0.022-0.832,0.034-1.359,0.034-1.584c0-2.471-0.572-4.211-1.719-5.223
			c-1.55-1.369-3.853-2.056-6.906-2.056c-2.854,0-4.959,0.5-6.317,1.5c-1.358,0.998-2.363,2.769-3.016,5.306l-5.93-0.81
			c0.539-2.537,1.427-4.586,2.661-6.147c1.235-1.562,3.021-2.763,5.356-3.604c2.336-0.844,5.042-1.264,8.119-1.264
			c3.056,0,5.537,0.358,7.446,1.078c1.909,0.719,3.313,1.623,4.212,2.711c0.897,1.09,1.527,2.467,1.887,4.127
			c0.201,1.035,0.304,2.897,0.304,5.594v8.086c0,5.639,0.129,9.203,0.387,10.697c0.259,1.494,0.77,2.926,1.533,4.295h-6.334
			C771.401,358.532,770.997,357.061,770.817,355.375z M770.313,341.833c-2.201,0.898-5.503,1.662-9.904,2.291
			c-2.493,0.359-4.257,0.764-5.289,1.213c-1.033,0.449-1.832,1.107-2.394,1.971c-0.562,0.865-0.842,1.826-0.842,2.882
			c0,1.616,0.611,2.965,1.836,4.043c1.225,1.077,3.017,1.616,5.373,1.616c2.336,0,4.414-0.51,6.233-1.532
			c1.818-1.021,3.154-2.42,4.009-4.195c0.652-1.369,0.978-3.391,0.978-6.064V341.833L770.313,341.833z"/>
		<path fill="#F7F2F2" d="M799.085,354.366l0.876,5.356c-1.707,0.359-3.234,0.539-4.582,0.539c-2.202,0-3.908-0.35-5.121-1.045
			s-2.066-1.61-2.561-2.746c-0.494-1.133-0.741-3.521-0.741-7.16v-20.584h-4.447v-4.717h4.447v-8.86l6.031-3.64v12.5h6.098v4.717
			h-6.098v20.923c0,1.729,0.104,2.842,0.318,3.336c0.214,0.493,0.563,0.887,1.045,1.178c0.482,0.293,1.174,0.438,2.071,0.438
			C797.097,354.602,797.984,354.524,799.085,354.366z"/>
		<path fill="#F7F2F2" d="M828.465,359.79v-5.256c-2.787,4.043-6.57,6.063-11.354,6.063c-2.111,0-4.082-0.403-5.912-1.213
			c-1.832-0.809-3.189-1.824-4.076-3.049c-0.889-1.225-1.512-2.723-1.87-4.498c-0.248-1.188-0.371-3.076-0.371-5.66V324.01h6.065
			v19.844c0,3.166,0.123,5.302,0.369,6.4c0.383,1.596,1.19,2.848,2.426,3.758c1.236,0.91,2.764,1.363,4.582,1.363
			c1.82,0,3.526-0.465,5.121-1.396c1.596-0.932,2.725-2.2,3.387-3.809c0.662-1.604,0.994-3.936,0.994-6.99v-19.17h6.063v35.779
			L828.465,359.79L828.465,359.79z"/>
		<path fill="#F7F2F2" d="M843.321,359.79v-35.78h5.459v5.424c1.392-2.536,2.678-4.211,3.856-5.02
			c1.18-0.809,2.478-1.213,3.892-1.213c2.044,0,4.122,0.649,6.232,1.953l-2.089,5.627c-1.482-0.877-2.965-1.314-4.447-1.314
			c-1.324,0-2.516,0.4-3.57,1.197c-1.056,0.797-1.81,1.902-2.258,3.318c-0.674,2.155-1.012,4.514-1.012,7.073v18.732h-6.063V359.79z
			"/>
		<path fill="#F7F2F2" d="M889.715,355.375c-2.246,1.91-4.408,3.258-6.484,4.043c-2.078,0.787-4.309,1.18-6.688,1.18
			c-3.931,0-6.951-0.959-9.063-2.881c-2.111-1.92-3.167-4.373-3.167-7.36c0-1.753,0.397-3.353,1.195-4.802
			c0.797-1.448,1.841-2.61,3.133-3.485c1.292-0.877,2.746-1.539,4.363-1.988c1.19-0.314,2.987-0.617,5.391-0.91
			c4.896-0.584,8.502-1.279,10.814-2.088c0.022-0.832,0.034-1.359,0.034-1.584c0-2.471-0.573-4.211-1.718-5.223
			c-1.552-1.369-3.854-2.056-6.907-2.056c-2.854,0-4.958,0.5-6.317,1.5c-1.358,0.998-2.363,2.769-3.016,5.306l-5.93-0.81
			c0.539-2.537,1.427-4.586,2.661-6.147c1.235-1.562,3.021-2.763,5.357-3.604c2.335-0.844,5.042-1.264,8.119-1.264
			c3.055,0,5.536,0.358,7.445,1.078c1.908,0.719,3.313,1.623,4.212,2.711c0.897,1.09,1.526,2.467,1.887,4.127
			c0.202,1.035,0.304,2.897,0.304,5.594v8.086c0,5.639,0.129,9.203,0.388,10.697c0.258,1.494,0.77,2.926,1.532,4.295h-6.334
			C890.299,358.532,889.895,357.061,889.715,355.375z M889.209,341.833c-2.201,0.898-5.503,1.662-9.904,2.291
			c-2.494,0.359-4.257,0.764-5.29,1.213c-1.032,0.449-1.831,1.107-2.392,1.971c-0.563,0.865-0.843,1.826-0.843,2.882
			c0,1.616,0.61,2.965,1.836,4.043c1.225,1.077,3.016,1.616,5.374,1.616c2.336,0,4.414-0.51,6.231-1.532
			c1.82-1.021,3.156-2.42,4.011-4.195c0.65-1.369,0.977-3.391,0.977-6.064V341.833z"/>
		<path fill="#F7F2F2" d="M904.607,359.79v-49.391h6.063v49.391H904.607z"/>
		<path fill="#F7F2F2" d="M919.938,359.79v-49.391h6.063v49.391H919.938z"/>
		<path fill="#F7F2F2" d="M935.131,373.569l-0.674-5.693c1.324,0.359,2.48,0.539,3.47,0.539c1.349,0,2.426-0.225,3.234-0.674
			c0.808-0.449,1.471-1.078,1.987-1.888c0.382-0.604,1-2.11,1.854-4.514c0.112-0.338,0.292-0.832,0.539-1.481l-13.578-35.849h6.537
			l7.445,20.719c0.966,2.63,1.83,5.392,2.594,8.289c0.696-2.784,1.527-5.502,2.494-8.153l7.646-20.854h6.064l-13.611,36.388
			c-1.46,3.93-2.595,6.637-3.403,8.118c-1.077,1.998-2.313,3.466-3.704,4.396c-1.395,0.932-3.057,1.397-4.986,1.397
			C937.87,374.311,936.567,374.063,935.131,373.569z"/>
	</g>
	<g>
		<g enable-background="new    ">
			<path fill="#F7F2F2" d="M950.096,323.795v-13.133h-4.905v-1.758h11.803v1.758h-4.927v13.133H950.096z"/>
			<path fill="#F7F2F2" d="M958.952,323.795v-14.891h2.967l3.523,10.543c0.325,0.981,0.563,1.717,0.711,2.203
				c0.17-0.541,0.434-1.336,0.793-2.388l3.563-10.358h2.652v14.891h-1.9v-12.463l-4.326,12.463h-1.776l-4.308-12.676v12.676H958.952
				z"/>
		</g>
	</g>
</g>
</svg>
