<?xml version="1.0" encoding="utf-8"?>
<!-- Generator: Adobe Illustrator 16.0.0, SVG Export Plug-In . SVG Version: 6.00 Build 0)  -->
<!DOCTYPE svg PUBLIC "-//W3C//DTD SVG 1.1//EN" "http://www.w3.org/Graphics/SVG/1.1/DTD/svg11.dtd">
<svg version="1.1" id="Layer_1" xmlns="http://www.w3.org/2000/svg" xmlns:xlink="http://www.w3.org/1999/xlink" x="0px" y="0px"
	 width="1015.383px" height="395.162px" viewBox="0 0 1015.383 395.162" enable-background="new 0 0 1015.383 395.162"
	 xml:space="preserve">
<g id="Layer_1_1_">
	<g>
		
			<image overflow="visible" opacity="0.3" enable-background="new    " width="1718" height="1526" xlink:href="DD7B0CB0.png"  transform="matrix(0.2389 0 0 0.2387 5.0649 -2.001)">
		</image>
		<g>
			<g>
				
					<linearGradient id="SVGID_1_" gradientUnits="userSpaceOnUse" x1="1053.0151" y1="-306.6055" x2="1292.9478" y2="-118.8388" gradientTransform="matrix(1 0 0 -1 -833.5 -91.0371)">
					<stop  offset="0.0128" style="stop-color:#F26A2C"/>
					<stop  offset="1" style="stop-color:#E25425"/>
				</linearGradient>
				<path fill="url(#SVGID_1_)" d="M351.955,86.2c-0.035,0.672,0.332,0.461,0.271,0c2.723-6.941,4.749-14.162,8.961-20.64
					c1.188-1.827,2.954-4.872,4.889-4.888c1.785-0.016,4.479,3.357,6.246,5.16c5.563,5.678,10.602,12.978,14.121,20.097
					c4.894,9.896,9.336,23.272,8.419,36.935c-0.727,10.815-7.317,17.936-8.146,27.699c1.021,0.701,2.256-0.83,3.26-1.357
					c3.416-1.795,8.095-3.59,11.405-5.703c4.275,10.695,5.927,26.316,0.813,36.662c-4.479,9.06-9.865,15.716-14.938,23.354
					c-39.521,59.537-88.834,83.354-150.449,97.225c-5.382,9.977-13.162,18.74-22.813,25.256
					c-11.527,7.785-26.058,13.305-45.623,12.223c-20.774-1.147-35.912-11.153-47.254-23.629c-5.5-6.049-9.976-13.482-13.578-21.725
					c-3.715-8.5-6.08-18.123-6.626-27.975c-0.594-10.729-0.011-20.021,2.281-29.604c2.708-0.008,5.541,0.107,7.875-0.271
					c-1.064-0.533-2.351-1.479-3.258-2.441c-2.611-2.063-2.384-3.77-2.445-5.979c0.844-3.185,2.172-6.396,3.531-9.23
					c1.328-2.771,2.501-5.854,5.703-6.789c2.323,1.521,2.897,4.238,4.074,6.521c1.084,2.101,2.286,4.521,3.802,6.521
					c2.588,3.407,7.409,7.821,12.764,7.875c3.406,0.032,6.495-2.177,9.233-3.531c2.654-1.313,5.481-3.012,8.69-4.071
					c8.38-2.771,20.54-0.992,26.341-5.433c4.31-3.297,8.054-11.795,10.863-17.108c1.427-2.697,3.225-5.761,5.16-8.962
					c1.694-2.806,4-7.16,6.246-7.604c2.268-0.449,5.073,1.004,7.061,2.443c1.2,0.87,4.286,3.146,4.616,4.618
					c0.363,1.606-0.55,3.61-0.813,5.159c-0.322,1.89-0.495,3.552-0.815,5.158c1.916-0.711,4.361-3.24,6.519-4.615
					c3.18,2.25,4.734,6.127,7.332,8.961c-1.563,1.697-3.737,2.781-5.432,4.347c2.563,0.104,4.775-1.896,6.789-1.354
					c2.029,0.541,2.245,3.461,3.53,5.158c30.9-19.041,54.905-44.585,71.151-79.025c8.142-17.26,13.936-36.438,16.022-58.932
					c1.983-21.402,0.588-41.527-3.53-60.018c-0.479-2.154-1.889-6.279-1.629-7.604c0.239-1.229,2.415-2.783,4.072-2.987
					c3.52-0.437,7.702,2.053,11.135,3.802c9.914,5.053,17.026,12.523,21.454,23.083c6.586,15.706,6.346,36.737,2.717,52.957
					C351.955,86.02,351.955,86.11,351.955,86.2z M190.625,287.983c50.514-0.32,21.493-110.729-32.732-42.76
					c-13.33,16.707-51.75-9.377-47.713,28.25c4.886,45.555,62.215,38.598,50.366-4.658
					C166.754,281.013,176.779,287.399,190.625,287.983 M166.74,304.379c1.207,2.215,3.462,6.498,4.889,6.789
					c1.751,0.359,4.426-1.77,5.976-2.715c4.204-2.57,7.136-4.882,9.505-8.42c1.156-1.728,2.37-3.812,2.716-6.244
					c-2.01-0.783-4.337-0.235-6.518-0.545c-6.699-0.945-12.462-3.511-16.566-6.519C162.046,291.099,163.924,299.209,166.74,304.379z
					"/>
				<path fill="#E25425" d="M13.033,192.383c21.669,19.068,46.874,34.601,79.57,42.64c-2.209,24.463,2.728,45.547,12.492,59.746
					c-21.757-5.941-41.071-16.687-60.289-26.072c2.489-0.947,5.953-0.926,8.962-1.355c-1.359-1.969-4.079-2.688-6.79-3.525
					c-2.764-0.858-6.18-1.159-8.419-2.174c-4.52-2.047-7.125-8.59-9.233-13.035c-2.458-5.188-4.681-10.483-5.975-16.021
					c5.582,1.479,11.099,3.021,16.838,4.347c-0.909-4.25-4.37-5.121-7.604-6.246c-1.675-0.582-3.503-1.226-5.432-1.631
					c-1.881-0.396-4.245-0.373-5.703-1.087c-3.89-1.896-5.429-10.618-6.247-15.479c-1.106-6.576-1.779-12.714-2.172-19.281
					C13.033,192.926,13.033,192.654,13.033,192.383z"/>
				<path fill="#F26A2C" d="M185.426,234.915c9.183-0.938,15.999,6.258,19.032,11.234c9.179,15.061-1.594,33.604-17.196,34.104
					c-12.954,0.418-22.861-10.944-21.783-24.075c0.43-5.229,2.632-9.263,4.013-11.179C172.7,240.542,178.003,235.67,185.426,234.915
					z"/>
				<path fill="#F26A2C" d="M135.483,256.515c11.495,0.965,21.347,8.766,22.495,19.946c1.32,12.856-8.904,27.687-24.679,21.668
					c-6.833-2.604-14.033-7.272-16.342-18.92C114.62,267.42,123.233,255.485,135.483,256.515z"/>
				<path fill="#E25425" d="M257.447,306.442c5.705,0.955,9.286,10.479,9.777,16.84c0.953,12.396-4.562,22.233-12.766,26.61
					c-2.139,1.146-5.293,2.343-7.332,1.898c-1.438-0.309-3.499-3.168-4.888-4.889c-3.146-3.896-5.362-7.287-8.419-11.138
					c-1.541-1.938-3.413-3.602-4.074-5.432c-0.623-1.727-0.89-5.646,0.271-7.332c1.047-1.518,4.852-1.938,7.604-2.986
					C245.538,317.014,252.723,312.038,257.447,306.442z"/>
			</g>
		</g>
	</g>
</g>
<g id="Layer_2">
	<g>
		<rect x="411.368" y="161.022" fill="none" width="528" height="145.72"/>
		<g enable-background="new    ">
			<path fill="#7E7E5E" d="M414.251,263.263v-12.656l52.805-66.022c3.75-4.687,7.313-8.765,10.688-12.234h-57.519v-12.164h73.828
				v12.164l-57.864,71.506l-6.261,7.242h65.813v12.164H414.251z"/>
			<path fill="#7E7E5E" d="M507.02,174.738v-14.555h12.657v14.555H507.02z M507.02,263.263V188.59h12.657v74.673H507.02z"/>
			<path fill="#7E7E5E" d="M537.139,263.263V160.184h12.656v58.782l29.953-30.375h16.383l-28.547,27.704l31.43,46.97h-15.605
				l-24.682-38.181l-8.932,8.578v29.603h-12.656V263.263z"/>
			<path fill="#7E7E5E" d="M602.135,240.974l12.518-1.97c0.703,5.017,2.658,8.858,5.871,11.531
				c3.211,2.672,7.697,4.008,13.465,4.008c5.813,0,10.125-1.185,12.938-3.551c2.814-2.367,4.221-5.146,4.221-8.332
				c0-2.859-1.242-5.109-3.729-6.75c-1.734-1.125-6.047-2.556-12.938-4.289c-9.279-2.345-15.717-4.371-19.303-6.082
				s-6.305-4.078-8.154-7.103c-1.854-3.022-2.775-6.362-2.775-10.021c0-3.328,0.76-6.41,2.285-9.246
				c1.52-2.836,3.596-5.189,6.223-7.064c1.969-1.455,4.65-2.685,8.051-3.692c3.396-1.008,7.041-1.512,10.936-1.512
				c5.855,0,11.004,0.844,15.434,2.531c4.432,1.687,7.699,3.973,9.813,6.856c2.107,2.883,3.561,6.737,4.355,11.565l-12.375,1.688
				c-0.563-3.844-2.189-6.844-4.887-9c-2.695-2.154-6.504-3.232-11.426-3.232c-5.813,0-9.961,0.96-12.445,2.882
				c-2.484,1.923-3.727,4.173-3.727,6.75c0,1.642,0.516,3.117,1.547,4.431c1.027,1.358,2.646,2.483,4.852,3.375
				c1.268,0.469,4.992,1.547,11.18,3.233c8.953,2.392,15.199,4.349,18.738,5.871c3.539,1.521,6.316,3.736,8.332,6.646
				c2.016,2.905,3.023,6.517,3.023,10.828c0,4.219-1.23,8.19-3.691,11.918s-6.012,6.608-10.652,8.647
				c-4.639,2.039-9.891,3.06-15.75,3.06c-9.699,0-17.098-2.017-22.184-6.048C606.786,254.872,603.542,248.896,602.135,240.974z"/>
			<path fill="#7E7E5E" d="M726.051,254.051c-4.688,3.984-9.197,6.798-13.535,8.438c-4.336,1.643-8.984,2.463-13.955,2.463
				c-8.201,0-14.51-2.006-18.912-6.014c-4.406-4.008-6.609-9.129-6.609-15.361c0-3.656,0.832-6.996,2.496-10.021
				c1.664-3.021,3.844-5.449,6.539-7.277c2.691-1.825,5.729-3.211,9.104-4.146c2.484-0.653,6.234-1.288,11.25-1.896
				c10.221-1.219,17.742-2.672,22.57-4.359c0.047-1.734,0.07-2.836,0.07-3.305c0-5.156-1.195-8.789-3.586-10.898
				c-3.234-2.859-8.039-4.289-14.414-4.289c-5.953,0-10.352,1.042-13.188,3.128s-4.934,5.777-6.293,11.074l-12.375-1.688
				c1.125-5.297,2.98-9.574,5.555-12.833c2.578-3.258,6.309-5.768,11.184-7.524s10.52-2.637,16.941-2.637
				c6.375,0,11.559,0.75,15.539,2.25c3.984,1.501,6.914,3.387,8.789,5.662c1.875,2.273,3.189,5.146,3.939,8.613
				c0.422,2.155,0.633,6.047,0.633,11.672v16.875c0,11.768,0.271,19.207,0.809,22.324c0.539,3.116,1.605,6.104,3.199,8.965h-13.219
				C727.272,260.638,726.426,257.565,726.051,254.051z M724.997,225.786c-4.594,1.875-11.484,3.469-20.672,4.779
				c-5.203,0.75-8.883,1.596-11.039,2.531c-2.156,0.938-3.82,2.311-4.992,4.112c-1.172,1.806-1.758,3.81-1.758,6.013
				c0,3.375,1.277,6.188,3.832,8.438s6.293,3.375,11.215,3.375c4.875,0,9.211-1.063,13.008-3.199
				c3.797-2.133,6.586-5.051,8.367-8.754c1.359-2.856,2.039-7.078,2.039-12.656V225.786z"/>
			<path fill="#7E7E5E" d="M755.54,263.263V188.59h11.391v10.618c5.484-8.203,13.404-12.305,23.77-12.305
				c4.5,0,8.635,0.809,12.41,2.426c3.77,1.617,6.596,3.739,8.473,6.364c1.873,2.625,3.188,5.742,3.938,9.352
				c0.469,2.345,0.703,6.445,0.703,12.306v45.914h-12.654V217.84c0-5.155-0.492-9.012-1.479-11.565
				c-0.986-2.553-2.73-4.594-5.238-6.115c-2.51-1.523-5.447-2.285-8.822-2.285c-5.395,0-10.045,1.711-13.957,5.133
				c-3.914,3.422-5.871,9.914-5.871,19.479v40.781h-12.66v-0.004H755.54z"/>
			<path fill="#7E7E5E" d="M882.479,254.051c-4.688,3.984-9.197,6.798-13.533,8.438c-4.336,1.643-8.988,2.463-13.957,2.463
				c-8.203,0-14.508-2.006-18.914-6.014s-6.609-9.129-6.609-15.361c0-3.656,0.832-6.996,2.496-10.021
				c1.664-3.021,3.844-5.449,6.539-7.277c2.695-1.825,5.73-3.211,9.105-4.146c2.482-0.653,6.232-1.288,11.25-1.896
				c10.221-1.219,17.74-2.672,22.568-4.359c0.047-1.734,0.07-2.836,0.07-3.305c0-5.156-1.195-8.789-3.586-10.898
				c-3.234-2.859-8.039-4.289-14.414-4.289c-5.953,0-10.348,1.042-13.186,3.128s-4.934,5.777-6.293,11.074l-12.375-1.688
				c1.125-5.297,2.979-9.574,5.557-12.833c2.578-3.258,6.305-5.768,11.18-7.524c4.875-1.758,10.521-2.637,16.945-2.637
				c6.375,0,11.555,0.75,15.539,2.25c3.98,1.501,6.914,3.387,8.789,5.662c1.875,2.272,3.188,5.146,3.938,8.613
				c0.422,2.155,0.633,6.047,0.633,11.672v16.875c0,11.768,0.271,19.207,0.813,22.324c0.537,3.116,1.604,6.104,3.197,8.965H885.01
				C883.698,260.638,882.854,257.565,882.479,254.051z M881.424,225.786c-4.594,1.875-11.482,3.469-20.672,4.779
				c-5.203,0.75-8.883,1.596-11.039,2.531c-2.156,0.938-3.82,2.311-4.992,4.112c-1.172,1.806-1.758,3.81-1.758,6.013
				c0,3.375,1.277,6.188,3.832,8.438s6.293,3.375,11.215,3.375c4.875,0,9.211-1.063,13.008-3.199
				c3.801-2.133,6.586-5.051,8.367-8.754c1.359-2.856,2.039-7.078,2.039-12.656V225.786z"/>
		</g>
	</g>
</g>
<g id="Layer_3">
	<g enable-background="new    ">
		<path fill="#3286BA" d="M410.421,359.79v-49.391h6.536v43.563h24.325v5.828H410.421z"/>
		<path fill="#3286BA" d="M472.784,348.268l6.267,0.773c-0.989,3.662-2.816,6.504-5.492,8.525
			c-2.673,2.021-6.087,3.028-10.239,3.028c-5.234,0-9.386-1.608-12.449-4.834c-3.066-3.223-4.602-7.744-4.602-13.561
			c0-6.021,1.553-10.691,4.649-14.019c3.099-3.322,7.12-4.983,12.063-4.983c4.783,0,8.691,1.629,11.727,4.885
			c3.032,3.258,4.548,7.84,4.548,13.746c0,0.358-0.012,0.897-0.034,1.617h-26.684c0.224,3.932,1.336,6.938,3.335,9.026
			c1.999,2.09,4.492,3.136,7.479,3.136c2.227,0,4.122-0.584,5.694-1.752C470.616,352.692,471.862,350.829,472.784,348.268z
			 M452.872,338.463h19.979c-0.27-3.01-1.03-5.268-2.291-6.771c-1.932-2.336-4.436-3.504-7.513-3.504
			c-2.785,0-5.127,0.932-7.022,2.795C454.124,332.848,453.074,335.342,452.872,338.463z"/>
		<path fill="#3286BA" d="M510.012,355.375c-2.246,1.91-4.405,3.258-6.482,4.043c-2.078,0.787-4.311,1.18-6.688,1.18
			c-3.93,0-6.952-0.959-9.063-2.881c-2.111-1.92-3.167-4.373-3.167-7.358c0-1.755,0.396-3.354,1.193-4.804
			c0.8-1.446,1.844-2.608,3.136-3.483c1.292-0.877,2.744-1.539,4.36-1.988c1.19-0.314,2.986-0.617,5.394-0.91
			c4.896-0.584,8.502-1.279,10.813-2.088c0.021-0.832,0.033-1.359,0.033-1.584c0-2.471-0.572-4.211-1.717-5.223
			c-1.551-1.369-3.854-2.058-6.907-2.058c-2.853,0-4.958,0.5-6.317,1.5c-1.356,0.998-2.36,2.771-3.016,5.308l-5.929-0.812
			c0.539-2.537,1.426-4.586,2.662-6.146c1.232-1.563,3.021-2.765,5.354-3.604c2.336-0.844,5.041-1.264,8.119-1.264
			c3.055,0,5.537,0.356,7.446,1.078c1.908,0.719,3.313,1.623,4.211,2.711c0.896,1.09,1.525,2.467,1.887,4.127
			c0.203,1.035,0.305,2.896,0.305,5.594v8.086c0,5.639,0.131,9.203,0.389,10.697s0.77,2.926,1.533,4.295h-6.334
			C510.596,358.532,510.192,357.061,510.012,355.375z M509.506,341.833c-2.201,0.898-5.502,1.662-9.904,2.291
			c-2.491,0.359-4.258,0.764-5.29,1.213c-1.03,0.449-1.828,1.107-2.392,1.971c-0.563,0.865-0.843,1.826-0.843,2.884
			c0,1.614,0.612,2.965,1.836,4.043c1.224,1.075,3.016,1.614,5.374,1.614c2.336,0,4.414-0.51,6.229-1.53
			c1.82-1.021,3.156-2.421,4.012-4.195c0.648-1.369,0.977-3.391,0.977-6.064V341.833L509.506,341.833z"/>
		<path fill="#3286BA" d="M524.971,359.79v-35.78h5.459v5.424c1.395-2.534,2.682-4.211,3.857-5.02
			c1.178-0.809,2.477-1.213,3.891-1.213c2.043,0,4.121,0.647,6.232,1.953l-2.088,5.627c-1.482-0.877-2.965-1.314-4.447-1.314
			c-1.326,0-2.516,0.4-3.572,1.197c-1.055,0.797-1.807,1.902-2.256,3.318c-0.674,2.153-1.012,4.514-1.012,7.071v18.732h-6.064
			V359.79L524.971,359.79z"/>
		<path fill="#3286BA" d="M548.016,359.79v-35.78h5.459v5.086c2.631-3.93,6.426-5.895,11.391-5.895c2.154,0,4.139,0.387,5.945,1.162
			c1.809,0.772,3.158,1.791,4.061,3.049c0.9,1.258,1.527,2.752,1.887,4.479c0.227,1.123,0.338,3.093,0.338,5.896v22h-6.063v-21.764
			c0-2.474-0.236-4.318-0.709-5.543c-0.473-1.228-1.311-2.201-2.51-2.935c-1.201-0.729-2.611-1.094-4.23-1.094
			c-2.582,0-4.813,0.82-6.688,2.459c-1.875,1.641-2.813,4.75-2.813,9.332v19.541h-6.064v0.005L548.016,359.79L548.016,359.79z"/>
		<path fill="#3286BA" d="M586.424,317.372v-6.973h6.064v6.973H586.424z M586.424,359.79v-35.78h6.064v35.779L586.424,359.79
			L586.424,359.79z"/>
		<path fill="#3286BA" d="M601.721,359.79v-35.78h5.457v5.086c2.629-3.93,6.426-5.895,11.391-5.895c2.154,0,4.139,0.387,5.943,1.162
			c1.811,0.772,3.162,1.791,4.064,3.049c0.895,1.258,1.523,2.752,1.887,4.479c0.225,1.123,0.336,3.093,0.336,5.896v22h-6.063
			v-21.764c0-2.474-0.236-4.318-0.707-5.543c-0.475-1.228-1.313-2.201-2.512-2.935c-1.201-0.729-2.609-1.094-4.229-1.094
			c-2.584,0-4.813,0.82-6.688,2.459c-1.875,1.641-2.814,4.75-2.814,9.332v19.541h-6.064L601.721,359.79L601.721,359.79z"/>
		<path fill="#3286BA" d="M638.983,362.754l5.896,0.877c0.246,1.818,0.932,3.146,2.055,3.978c1.504,1.122,3.563,1.686,6.166,1.686
			c2.809,0,4.977-0.563,6.502-1.686c1.527-1.123,2.563-2.695,3.102-4.72c0.313-1.231,0.461-3.828,0.438-7.78
			c-2.646,3.122-5.947,4.684-9.9,4.684c-4.92,0-8.73-1.773-11.422-5.322c-2.695-3.549-4.045-7.805-4.045-12.77
			c0-3.414,0.615-6.564,1.854-9.451c1.234-2.885,3.025-5.115,5.373-6.688c2.348-1.572,5.104-2.355,8.271-2.355
			c4.225,0,7.701,1.707,10.443,5.121v-4.313h5.592v30.931c0,5.567-0.564,9.518-1.699,11.844c-1.137,2.324-2.934,4.16-5.393,5.508
			s-5.486,2.021-9.08,2.021c-4.268,0-7.715-0.962-10.344-2.884C640.163,369.51,638.893,366.618,638.983,362.754z M644.002,341.26
			c0,4.693,0.932,8.119,2.797,10.275s4.199,3.231,7.008,3.231c2.785,0,5.121-1.069,7.012-3.217c1.887-2.145,2.828-5.51,2.828-10.092
			c0-4.379-0.973-7.682-2.912-9.904c-1.943-2.225-4.285-3.336-7.025-3.336c-2.695,0-4.986,1.099-6.873,3.285
			C644.948,333.694,644.002,336.948,644.002,341.26z"/>
		<path fill="#3286BA" d="M698.348,359.79v-49.391h6.703l25.943,38.774v-38.774h6.266v49.391h-6.703l-25.939-38.813v38.813H698.348z
			"/>
		<path fill="#3286BA" d="M770.817,355.375c-2.246,1.91-4.408,3.258-6.484,4.043c-2.078,0.787-4.309,1.18-6.688,1.18
			c-3.932,0-6.949-0.959-9.063-2.881c-2.111-1.92-3.166-4.373-3.166-7.358c0-1.755,0.398-3.354,1.195-4.804
			c0.797-1.446,1.842-2.608,3.133-3.483c1.291-0.877,2.746-1.539,4.363-1.988c1.188-0.314,2.984-0.617,5.391-0.91
			c4.895-0.584,8.502-1.279,10.814-2.088c0.02-0.832,0.031-1.359,0.031-1.584c0-2.471-0.57-4.211-1.719-5.223
			c-1.549-1.369-3.852-2.058-6.906-2.058c-2.854,0-4.959,0.5-6.314,1.5c-1.359,0.998-2.363,2.771-3.018,5.308l-5.93-0.812
			c0.539-2.537,1.426-4.586,2.66-6.146c1.234-1.563,3.021-2.765,5.355-3.604c2.336-0.844,5.041-1.264,8.119-1.264
			c3.057,0,5.537,0.356,7.445,1.078c1.91,0.719,3.313,1.623,4.213,2.711c0.896,1.09,1.527,2.467,1.887,4.127
			c0.201,1.035,0.305,2.896,0.305,5.594v8.086c0,5.639,0.129,9.203,0.387,10.697c0.26,1.494,0.77,2.926,1.533,4.295h-6.334
			C771.401,358.532,770.997,357.061,770.817,355.375z M770.313,341.833c-2.199,0.898-5.504,1.662-9.902,2.291
			c-2.494,0.359-4.258,0.764-5.289,1.213c-1.033,0.449-1.832,1.107-2.396,1.971c-0.561,0.865-0.842,1.826-0.842,2.884
			c0,1.614,0.611,2.965,1.836,4.043c1.227,1.075,3.02,1.614,5.373,1.614c2.336,0,4.414-0.51,6.234-1.53
			c1.816-1.021,3.152-2.421,4.008-4.195c0.652-1.369,0.979-3.391,0.979-6.064V341.833L770.313,341.833z"/>
		<path fill="#3286BA" d="M799.084,354.366l0.877,5.354c-1.707,0.359-3.234,0.539-4.582,0.539c-2.203,0-3.908-0.35-5.121-1.045
			s-2.064-1.608-2.561-2.746c-0.494-1.133-0.742-3.521-0.742-7.16v-20.584h-4.447v-4.717h4.447v-8.858l6.031-3.642v12.5h6.098v4.717
			h-6.098v20.925c0,1.729,0.104,2.842,0.316,3.336c0.217,0.491,0.564,0.887,1.045,1.178c0.482,0.293,1.176,0.438,2.072,0.438
			C797.096,354.602,797.985,354.524,799.084,354.366z"/>
		<path fill="#3286BA" d="M828.465,359.79v-5.256c-2.787,4.043-6.57,6.063-11.354,6.063c-2.111,0-4.082-0.401-5.912-1.213
			c-1.832-0.809-3.189-1.824-4.076-3.049c-0.889-1.225-1.512-2.723-1.871-4.498c-0.248-1.188-0.371-3.076-0.371-5.66V324.01h6.066
			v19.844c0,3.166,0.123,5.304,0.369,6.4c0.383,1.596,1.188,2.848,2.426,3.758c1.236,0.91,2.764,1.363,4.582,1.363
			c1.82,0,3.525-0.465,5.121-1.396c1.596-0.931,2.725-2.198,3.387-3.809c0.662-1.604,0.994-3.936,0.994-6.99v-19.17h6.063v35.779
			L828.465,359.79L828.465,359.79z"/>
		<path fill="#3286BA" d="M843.321,359.79v-35.78h5.459v5.424c1.393-2.534,2.678-4.211,3.855-5.02
			c1.182-0.809,2.479-1.213,3.893-1.213c2.045,0,4.123,0.647,6.23,1.953l-2.088,5.627c-1.48-0.877-2.965-1.314-4.447-1.314
			c-1.322,0-2.516,0.4-3.568,1.197c-1.059,0.797-1.813,1.902-2.258,3.318c-0.676,2.153-1.014,4.514-1.014,7.071v18.732h-6.063
			V359.79L843.321,359.79z"/>
		<path fill="#3286BA" d="M889.715,355.375c-2.246,1.91-4.408,3.258-6.482,4.043c-2.078,0.787-4.311,1.18-6.689,1.18
			c-3.93,0-6.951-0.959-9.063-2.881c-2.111-1.92-3.166-4.373-3.166-7.358c0-1.755,0.395-3.354,1.193-4.804
			c0.797-1.446,1.84-2.608,3.133-3.483c1.291-0.877,2.746-1.539,4.363-1.988c1.189-0.314,2.986-0.617,5.391-0.91
			c4.896-0.584,8.504-1.279,10.814-2.088c0.021-0.832,0.033-1.359,0.033-1.584c0-2.471-0.572-4.211-1.717-5.223
			c-1.555-1.369-3.855-2.058-6.908-2.058c-2.854,0-4.957,0.5-6.316,1.5c-1.357,0.998-2.361,2.771-3.016,5.308l-5.93-0.812
			c0.539-2.537,1.426-4.586,2.658-6.146c1.236-1.563,3.021-2.765,5.357-3.604c2.336-0.844,5.043-1.264,8.119-1.264
			c3.055,0,5.537,0.356,7.445,1.078c1.906,0.719,3.313,1.623,4.213,2.711c0.895,1.09,1.523,2.467,1.887,4.127
			c0.201,1.035,0.303,2.896,0.303,5.594v8.086c0,5.639,0.129,9.203,0.391,10.697c0.258,1.494,0.77,2.926,1.529,4.295h-6.334
			C890.299,358.532,889.895,357.061,889.715,355.375z M889.209,341.833c-2.201,0.898-5.504,1.662-9.904,2.291
			c-2.494,0.359-4.258,0.764-5.291,1.213c-1.029,0.449-1.83,1.107-2.391,1.971c-0.564,0.865-0.844,1.826-0.844,2.884
			c0,1.614,0.609,2.965,1.836,4.043c1.225,1.075,3.016,1.614,5.375,1.614c2.336,0,4.414-0.51,6.229-1.53
			c1.82-1.021,3.156-2.421,4.014-4.195c0.648-1.369,0.977-3.391,0.977-6.064V341.833z"/>
		<path fill="#3286BA" d="M904.608,359.79v-49.391h6.063v49.391H904.608z"/>
		<path fill="#3286BA" d="M919.938,359.79v-49.391H926v49.391H919.938z"/>
		<path fill="#3286BA" d="M935.131,373.569l-0.674-5.693c1.324,0.359,2.479,0.539,3.469,0.539c1.352,0,2.426-0.225,3.234-0.674
			s1.471-1.078,1.988-1.89c0.381-0.604,1-2.108,1.854-4.514c0.111-0.338,0.291-0.832,0.539-1.479l-13.578-35.851h6.537l7.445,20.719
			c0.965,2.632,1.83,5.394,2.594,8.289c0.695-2.782,1.527-5.502,2.494-8.151l7.645-20.854h6.064l-13.611,36.39
			c-1.459,3.93-2.594,6.637-3.402,8.116c-1.076,1.998-2.313,3.468-3.703,4.396c-1.396,0.932-3.059,1.396-4.986,1.396
			C937.87,374.311,936.567,374.063,935.131,373.569z"/>
	</g>
</g>
<g id="tm">
	<g enable-background="new    ">
		<path fill="#3286BA" d="M976.065,323.795v-13.133h-4.904v-1.758h11.803v1.758h-4.926v13.133H976.065z"/>
		<path fill="#3286BA" d="M984.922,323.795v-14.891h2.967l3.523,10.543c0.324,0.979,0.563,1.717,0.711,2.203
			c0.17-0.541,0.434-1.336,0.793-2.39l3.563-10.356h2.652v14.891h-1.9v-12.463l-4.326,12.463h-1.775l-4.309-12.676v12.676H984.922z"
			/>
	</g>
</g>
</svg>
